<?xml version="1.0" encoding="UTF-8"?> <svg xmlns="http://www.w3.org/2000/svg" id="Livello_1" data-name="Livello 1" viewBox="0 0 548.64995 163.08727"><g><path d="m324.55109,11.01087v6.1216h14.17221v5.4634h-14.17221v11.17386h-6.08058V5.54747h21.73145v5.4634h-15.65087Z" fill="#7858a0" stroke-width="0"></path><path d="m364.43493,12.53147v21.23826h-5.99853v-2.67017c-1.27264,1.93083-3.65564,3.16336-6.40694,3.16336-4.60191,0-7.88743-3.4095-7.88743-8.21653v-13.51492h5.7925v12.24138c0,2.62914,1.64276,4.43691,4.02576,4.43691,2.50516,0,4.43599-1.80776,4.43599-4.10781l.04011.12307v-12.69354h5.99853Z" fill="#7858a0" stroke-width="0"></path><path d="m382.17708,32.41414c-1.23252,1.10945-3.16336,1.84879-4.88816,1.84879-3.73769,0-6.36683-2.67017-6.36683-6.49081v-10.3935h-2.91722v-4.84714h2.91722v-5.83352h5.75057v5.83352h4.60191v4.84714h-4.60191v9.44814c0,1.39753.90434,2.383,2.01288,2.383.82229,0,1.64276-.28716,2.05482-.69831l1.43673,3.90269Z" fill="#7858a0" stroke-width="0"></path><path d="m406.00164,12.53147v21.23826h-5.99853v-2.67017c-1.27264,1.93083-3.65564,3.16336-6.40694,3.16336-4.60191,0-7.88743-3.4095-7.88743-8.21653v-13.51492h5.7925v12.24138c0,2.62914,1.64276,4.43691,4.02576,4.43691,2.50516,0,4.43599-1.80776,4.43599-4.10781l.04011.12307v-12.69354h5.99853Z" fill="#7858a0" stroke-width="0"></path><path d="m424.40199,12.03828v5.05317c-4.43782,0-7.27117,2.5471-7.27117,6.53183v10.14645h-5.99853V12.53147h5.99853v3.94371c1.39662-2.75312,4.02576-4.43691,7.27117-4.43691Z" fill="#7858a0" stroke-width="0"></path><path d="m442.76223,27.0738l3.82156,3.90269c-1.89072,1.97186-5.54636,3.28643-8.66961,3.28643-6.32489,0-11.25499-4.64202-11.25499-11.17386,0-6.40876,4.72407-11.05079,10.9268-11.05079,6.6549,0,10.55851,5.05317,10.55851,13.06367h-15.32269c.69831,2.30004,2.54527,3.86167,5.05226,3.86167,1.68469,0,3.73769-.78127,4.88816-1.88981Zm-9.85837-6.28569h9.48825c-.57433-2.09493-2.13504-3.45052-4.55998-3.45052-2.25902,0-4.14792,1.31457-4.92828,3.45052Z" fill="#7858a0" stroke-width="0"></path><path d="m337.36679,72.27427h-12.56956l-1.80868,4.43691h-6.77706l11.50113-28.22226h6.77889l11.50296,28.22226h-6.819l-1.80868-4.43691Zm-2.09493-5.13522l-4.18985-10.31054-4.18985,10.31054h8.37971Z" fill="#7858a0" stroke-width="0"></path><path d="m362.42205,54.97973v5.05317c-4.43782,0-7.27117,2.5471-7.27117,6.53183v10.14645h-5.99853v-21.23826h5.99853v3.94371c1.39662-2.75312,4.02576-4.43691,7.27117-4.43691Z" fill="#7858a0" stroke-width="0"></path><path d="m378.48133,75.35558c-1.23252,1.10945-3.16336,1.84879-4.88816,1.84879-3.73769,0-6.36683-2.67017-6.36683-6.49081v-10.3935h-2.91722v-4.84714h2.91722v-5.83352h5.75057v5.83352h4.60191v4.84714h-4.60191v9.44814c0,1.39753.90434,2.383,2.01288,2.383.82229,0,1.64276-.28716,2.05482-.69831l1.43673,3.90269Z" fill="#7858a0" stroke-width="0"></path><path d="m381.93094,49.26927c0-1.68378,1.43673-3.20438,3.28552-3.20438,1.76674,0,3.20347,1.5206,3.20347,3.20438,0,1.80776-1.43673,3.28643-3.20347,3.28643-1.84879,0-3.28552-1.47866-3.28552-3.28643Zm.24614,6.20365h5.99671v21.23826h-5.99671v-21.23826Z" fill="#7858a0" stroke-width="0"></path><path d="m400.49721,55.47292h4.60009v4.84714h-4.60009v16.39112h-5.75239v-16.39112h-2.91539v-4.84714h2.91539v-1.84879c0-3.82064,2.62914-6.49081,6.36865-6.49081,1.72481,0,3.65564.73933,4.88816,1.84879l-1.43855,3.65564c-.41023-.41023-1.23252-.69831-2.05299-.69831-1.11037,0-2.01288.98638-2.01288,2.383v1.15048Z" fill="#7858a0" stroke-width="0"></path><path d="m408.66907,49.26927c0-1.68378,1.43855-3.20438,3.28734-3.20438,1.76492,0,3.20347,1.5206,3.20347,3.20438,0,1.80776-1.43855,3.28643-3.20347,3.28643-1.84879,0-3.28734-1.47866-3.28734-3.28643Zm.24614,6.20365h5.99853v21.23826h-5.99853v-21.23826Z" fill="#7858a0" stroke-width="0"></path><path d="m418.93768,66.07154c0-6.03864,5.34033-11.09181,11.62511-11.09181,3.45143,0,6.28478,1.39662,8.3396,3.61462l-3.98383,3.41041c-1.06843-1.1915-2.75312-1.97186-4.39588-1.97186-3.12325,0-5.75239,2.75221-5.75239,5.99762,0,3.32745,2.62914,6.12069,5.7925,6.12069,1.64276,0,3.36939-.82138,4.47793-2.0539l3.98565,3.36848c-2.09493,2.30096-4.97203,3.7386-8.50369,3.7386-6.2866,0-11.585-5.09419-11.585-11.13283Z" fill="#7858a0" stroke-width="0"></path><path d="m442.35017,49.26927c0-1.68378,1.43673-3.20438,3.28552-3.20438,1.76674,0,3.20347,1.5206,3.20347,3.20438,0,1.80776-1.43673,3.28643-3.20347,3.28643-1.84879,0-3.28552-1.47866-3.28552-3.28643Zm.24614,6.20365h5.99671v21.23826h-5.99671v-21.23826Z" fill="#7858a0" stroke-width="0"></path><path d="m472.6236,64.01763v12.69354h-5.7925v-2.13595c-1.51878,1.72481-3.94371,2.62914-6.24467,2.62914-4.51804,0-8.00959-2.71119-8.00959-6.77889,0-4.18985,3.90174-7.06514,8.83188-7.06514,1.72481,0,3.61553.36921,5.42238,1.06752v-.41023c0-2.25993-1.39662-4.23179-4.88816-4.23179-1.97277,0-3.81973.65729-5.50443,1.5206l-2.01288-3.98474c2.99926-1.5206,5.91466-2.34198,8.87199-2.34198,5.54636,0,9.32598,3.49155,9.32598,9.03791Zm-5.7925,5.99762v-1.97186c-1.35468-.49319-2.91722-.78036-4.55998-.78036-2.17697,0-3.90178,1.27355-3.90178,2.99835,0,1.72572,1.51878,2.79324,3.57359,2.79324,2.30096,0,4.47793-1.06752,4.88816-3.03938Z" fill="#7858a0" stroke-width="0"></path><path d="m477.67221,47.99573h5.99853v28.71545h-5.99853v-28.71545Z" fill="#7858a0" stroke-width="0"></path><path d="m318.55253,91.43037h6.08061v28.22226h-6.08061v-28.22226Z" fill="#7858a0" stroke-width="0"></path><path d="m350.26454,106.13679v13.51584h-5.7925v-12.24229c0-2.62914-1.64458-4.43599-4.02576-4.43599-2.50698,0-4.43782,1.80685-4.43782,4.10781l-.04011-.12307v12.69354h-5.99853v-21.23826h5.99853v2.67017c1.27264-1.93083,3.65564-3.16336,6.40876-3.16336,4.60009,0,7.88743,3.4095,7.88743,8.21562Z" fill="#7858a0" stroke-width="0"></path><path d="m367.92465,118.29703c-1.23252,1.10945-3.16339,1.84879-4.88816,1.84879-3.73951,0-6.36865-2.67017-6.36865-6.49081v-10.3935h-2.91539v-4.84714h2.91539v-5.83352h5.75239v5.83352h4.60009v4.84714h-4.60009v9.44814c0,1.39753.90251,2.383,2.01288,2.383.82047,0,1.64276-.28716,2.05299-.69831l1.43855,3.90269Z" fill="#7858a0" stroke-width="0"></path><path d="m386.57297,112.9567l3.81973,3.90269c-1.8889,1.97186-5.54636,3.28643-8.66778,3.28643-6.32672,0-11.25681-4.64202-11.25681-11.17386,0-6.40876,4.72407-11.05079,10.92863-11.05079,6.6549,0,10.55668,5.05317,10.55668,13.06367h-15.32269c.69831,2.30004,2.5471,3.86167,5.05226,3.86167,1.68469,0,3.73951-.78127,4.88999-1.88981Zm-9.8602-6.28569h9.49007c-.57615-2.09493-2.13686-3.45052-4.55998-3.45052-2.25902,0-4.14974,1.31457-4.9301,3.45052Z" fill="#7858a0" stroke-width="0"></path><path d="m396.01746,90.93717h5.99671v28.71545h-5.99671v-28.71545Z" fill="#7858a0" stroke-width="0"></path><path d="m407.23052,90.93717h5.99671v28.71545h-5.99671v-28.71545Z" fill="#7858a0" stroke-width="0"></path><path d="m418.1555,92.21072c0-1.68378,1.43855-3.20438,3.28734-3.20438,1.76492,0,3.20347,1.5206,3.20347,3.20438,0,1.80776-1.43855,3.28643-3.20347,3.28643-1.84879,0-3.28734-1.47866-3.28734-3.28643Zm.24614,6.20365h5.99853v21.23826h-5.99853v-21.23826Z" fill="#7858a0" stroke-width="0"></path><path d="m451.01796,98.41437v18.97924c0,5.4634-4.72407,9.32507-11.42091,9.32507-3.73769,0-7.27117-1.1915-9.36609-2.83517l2.09493-4.23088c1.39662,1.23252,3.86167,2.01288,6.32672,2.01288,3.86167,0,6.32672-1.76674,6.32672-4.51895v-2.34107c-1.68469,2.0539-4.23179,3.28643-7.02503,3.28643-5.34033,0-9.40803-4.19077-9.40803-10.10634s4.0677-10.0644,9.40803-10.0644c2.87528,0,5.58647,1.35559,7.02503,3.36848v-2.87528h6.03864Zm-6.03864,9.57121c0-2.95733-2.13686-5.01123-5.1343-5.01123-2.99926,0-5.13613,2.0539-5.13613,5.01123,0,2.95824,2.13686,5.05317,5.13613,5.05317,2.99744,0,5.1343-2.09493,5.1343-5.05317Z" fill="#7858a0" stroke-width="0"></path><path d="m471.18505,112.9567l3.81973,3.90269c-1.8889,1.97186-5.54636,3.28643-8.66778,3.28643-6.32672,0-11.25681-4.64202-11.25681-11.17386,0-6.40876,4.72407-11.05079,10.92863-11.05079,6.6549,0,10.55668,5.05317,10.55668,13.06367h-15.32269c.69831,2.30004,2.5471,3.86167,5.05226,3.86167,1.68469,0,3.73951-.78127,4.88999-1.88981Zm-9.8602-6.28569h9.49007c-.57615-2.09493-2.13686-3.45052-4.55998-3.45052-2.25902,0-4.14974,1.31457-4.9301,3.45052Z" fill="#7858a0" stroke-width="0"></path><path d="m500.80028,106.13679v13.51584h-5.7925v-12.24229c0-2.62914-1.64458-4.43599-4.02576-4.43599-2.50698,0-4.43782,1.80685-4.43782,4.10781l-.04011-.12307v12.69354h-5.99853v-21.23826h5.99853v2.67017c1.27264-1.93083,3.65564-3.16336,6.40876-3.16336,4.60009,0,7.88743,3.4095,7.88743,8.21562Z" fill="#7858a0" stroke-width="0"></path><path d="m504.65648,109.01299c0-6.03864,5.34033-11.09181,11.62694-11.09181,3.44961,0,6.28478,1.39662,8.3396,3.61462l-3.98565,3.41041c-1.06843-1.1915-2.75312-1.97186-4.39588-1.97186-3.12142,0-5.75057,2.75221-5.75057,5.99762,0,3.32745,2.62914,6.12069,5.7925,6.12069,1.64276,0,3.36756-.82138,4.47793-2.0539l3.98383,3.36848c-2.09493,2.30096-4.97021,3.7386-8.50369,3.7386-6.28478,0-11.585-5.09419-11.585-11.13283Z" fill="#7858a0" stroke-width="0"></path><path d="m543.26951,112.9567l3.81973,3.90269c-1.8889,1.97186-5.54636,3.28643-8.66778,3.28643-6.32672,0-11.25681-4.64202-11.25681-11.17386,0-6.40876,4.72407-11.05079,10.92863-11.05079,6.6549,0,10.55668,5.05317,10.55668,13.06367h-15.32269c.69831,2.30004,2.5471,3.86167,5.05226,3.86167,1.68469,0,3.73951-.78127,4.88999-1.88981Zm-9.8602-6.28569h9.49007c-.57615-2.09493-2.13686-3.45052-4.55998-3.45052-2.25902,0-4.14974,1.31457-4.9301,3.45052Z" fill="#7858a0" stroke-width="0"></path><path d="m335.43596,162.59408l-6.44887-9.16098h-4.47793v9.16098h-6.03864v-28.22226h12.69354c6.12069,0,10.64055,3.94371,10.64055,9.5311,0,4.18985-2.5471,7.47628-6.40876,8.83188l6.94298,9.85929h-6.90287Zm-10.9268-14.70643h5.99853c2.99744,0,5.05226-1.56162,5.05226-3.98474,0-2.42403-2.05482-3.98565-5.05226-3.98565h-5.99853v7.97039Z" fill="#7858a0" stroke-width="0"></path><path d="m361.06737,155.89815l3.81973,3.90269c-1.8889,1.97186-5.54636,3.28643-8.66778,3.28643-6.32672,0-11.25681-4.64202-11.25681-11.17386,0-6.40876,4.72407-11.05079,10.92863-11.05079,6.6549,0,10.55668,5.05317,10.55668,13.06367h-15.32269c.69831,2.30004,2.5471,3.86167,5.05226,3.86167,1.68469,0,3.73951-.78127,4.88999-1.88981Zm-9.8602-6.28569h9.49007c-.57615-2.09493-2.13686-3.45052-4.55998-3.45052-2.25902,0-4.14974,1.31457-4.9301,3.45052Z" fill="#7858a0" stroke-width="0"></path><path d="m368.90921,159.88289l2.58903-4.14883c1.8889,1.35559,4.2719,2.38209,7.10525,2.38209,1.60265,0,2.75312-.65729,2.75312-1.60173,0-1.31457-1.56071-1.72572-3.73769-2.30096-4.35577-1.06752-7.72337-2.25902-7.76527-6.44979-.04011-4.02576,3.28734-6.90104,8.29949-6.90104,3.03938,0,6.03864,1.06843,8.37971,2.62914l-2.42311,4.2719c-1.93083-1.19059-4.14974-1.8889-5.95659-1.8889-1.48049,0-2.50698.5333-2.50698,1.27355,0,1.14957.8624,1.47866,3.73951,2.25902,3.65564.94445,7.72151,2.17697,7.72151,6.819,0,4.19077-3.4095,6.86093-8.62585,6.86093-3.4095,0-7.02503-1.15048-9.57212-3.20438Z" fill="#7858a0" stroke-width="0"></path><path d="m406.04357,155.89815l3.81973,3.90269c-1.8889,1.97186-5.54636,3.28643-8.66778,3.28643-6.32672,0-11.25681-4.64202-11.25681-11.17386,0-6.40876,4.72407-11.05079,10.92863-11.05079,6.6549,0,10.55668,5.05317,10.55668,13.06367h-15.32269c.69831,2.30004,2.5471,3.86167,5.05226,3.86167,1.68469,0,3.73951-.78127,4.88999-1.88981Zm-9.8602-6.28569h9.49007c-.57615-2.09493-2.13686-3.45052-4.55998-3.45052-2.25902,0-4.14974,1.31457-4.9301,3.45052Z" fill="#7858a0" stroke-width="0"></path><path d="m434.3023,149.90053v12.69354h-5.7925v-2.13595c-1.51878,1.72481-3.94371,2.62914-6.24467,2.62914-4.51804,0-8.00959-2.71119-8.00959-6.77889,0-4.18985,3.90178-7.06514,8.83188-7.06514,1.72481,0,3.61553.36921,5.42238,1.06752v-.41023c0-2.25993-1.39662-4.23179-4.88816-4.23179-1.97277,0-3.81973.65729-5.50443,1.5206l-2.01292-3.98474c2.9993-1.5206,5.9147-2.34198,8.87203-2.34198,5.54636,0,9.32598,3.49155,9.32598,9.03791Zm-5.7925,5.99762v-1.97186c-1.35468-.49319-2.91722-.78036-4.55998-.78036-2.17697,0-3.90178,1.27355-3.90178,2.99835,0,1.72572,1.51878,2.79324,3.57359,2.79324,2.30096,0,4.47793-1.06752,4.88816-3.03938Z" fill="#7858a0" stroke-width="0"></path><path d="m452.6206,140.86262v5.05317c-4.43782,0-7.27117,2.5471-7.27117,6.53183v10.14645h-5.99853v-21.23826h5.99853v3.94371c1.39662-2.75312,4.02576-4.43691,7.27117-4.43691Z" fill="#7858a0" stroke-width="0"></path><path d="m454.8778,151.95443c0-6.03864,5.34033-11.09181,11.62511-11.09181,3.45143,0,6.28478,1.39662,8.3396,3.61462l-3.98383,3.41041c-1.06843-1.1915-2.75312-1.97186-4.39588-1.97186-3.12325,0-5.75239,2.75221-5.75239,5.99762,0,3.32745,2.62914,6.12069,5.7925,6.12069,1.64276,0,3.36939-.82138,4.47793-2.0539l3.98565,3.36848c-2.09493,2.30096-4.97203,3.7386-8.50369,3.7386-6.2866,0-11.585-5.09419-11.585-11.13283Z" fill="#7858a0" stroke-width="0"></path><path d="m498.74729,149.07824v13.51584h-5.7925v-12.24229c0-2.62914-1.64276-4.43599-4.02576-4.43599-2.50516,0-4.43599,1.80685-4.43599,4.10781v12.57047h-5.99853v-28.71545h5.99853v10.06531c1.31457-1.84879,3.65564-3.08131,6.36683-3.08131,4.60191,0,7.88743,3.4095,7.88743,8.21562Z" fill="#7858a0" stroke-width="0"></path></g><g><g><path d="m41.22007,64.31458h-12.07953v30.91369h12.07953c8.52443,0,15.45685-6.93242,15.45685-15.45685s-6.93242-15.45685-15.45685-15.45685Z" fill="#65a9dd" stroke-width="0"></path><path d="m30.91369,15.58893v130.82164c0,8.3408-6.93242,15.12389-15.45685,15.12389-8.51674,0-15.45685-6.78309-15.45685-15.12389V15.58893C0,7.24809,6.94011.46504,15.45685.46504c8.52443,0,15.45685,6.78304,15.45685,15.12389Z" fill="#65a9dd" stroke-width="0"></path><path d="m110.31542.31387c.01132,0-2.61122,3.44646-7.76539,12.08993l-9.67022,15.87356H21.54314v-14.0019c-.05726-8.24516-3.01101-11.59617-6.35924-14.0019l95.13152.04031Z" fill="#65a9dd" stroke-width="0"></path></g><g><path d="m145.04865,22.67397l-5.42582,9.01921-2.89712,4.81231-15.24338,25.33264-2.27365,3.78317-2.27361,3.78317-18.21128,30.26595-2.27361,3.78317-2.28105,3.78336-28.20572,46.88184c-.99219,1.62715-2.25667,3.01523-3.72795,4.12535-1.59448,1.20264-3.43398,2.0761-5.43151,2.55862-.70507.16676-1.41893.28161-2.1341.34433-3.14804.28795-6.29329-.45258-9.03506-2.15703-.33058-.20781-.65395-.42321-.96312-.66135-2.84767-2.08184-4.84753-5.09422-5.67007-8.58329-.92101-3.86669-.28628-7.86939,1.79027-11.27501l10.1929-16.94135,18.97625-31.53712,3.1238-5.19061,9.82477-16.32103,3.1094-5.17538,15.37803-25.55208,2.27365-3.78317,2.281-3.78336,13.93282-23.16097c2.07655-3.40562,5.20719-5.77959,8.81233-6.67518,7.54287-1.72985,16.50606,3.10593,18.14204,11.04879.92124,3.8741.28632,7.86939-1.79023,11.27501Z" fill="#eb6767" stroke-width="0"></path><path d="m99.35321,96.1114h24.73869c8.52443,0,15.45685-6.78309,15.45685-15.12389s-6.93242-15.12389-15.45685-15.12389l-6.59472.07126-18.14397,30.17653Z" fill="#eb6767" stroke-width="0"></path></g><path d="m272.98767,138.1928c9.11385,18.57293-17.66859,32.87275-27.44838,14.71801l-29.26182-52.63591c-6.6159-11.85014,3.06075-22.27863,15.83306-23.15814,13.56994-.93444,20.0728-12.4365,20.0728-24.49274,0-12.47377-9.37218-24.76022-21.2643-24.67172l-.28505-.03727-38.80056.27587c3.07014-3.80997,4.91218-8.6936,4.91218-14.00223C196.74559,8.79053,194.84505,3.83983,191.6872,0c3.22424.21946,39.49332.20003,42.87949.43216,25.7431,1.76473,44.84573,25.87241,44.84573,52.19186,0,18.37886-9.19577,35.1473-24.59758,44.84002l-3.41368,2.15473,21.58651,38.57403Z" fill="#7858a0" stroke-width="0"></path><g><path d="m186.36296,15.65239c0,6.91454-4.63797,12.76415-10.97377,14.59311-1.33505.38586-2.7473.59424-4.20586.59424-1.3968,0-2.7473-.1852-4.02833-.54793-6.42068-1.75949-11.15902-7.6554-11.15902-14.63941,0-6.79881,4.49139-12.57127,10.65738-14.49283q.00772-.00772.01545-.00772c1.42765-.44756,2.94023-.68679,4.51451-.68679,1.45855,0,2.8708.20833,4.20586.60191,6.3358,1.82124,10.97377,7.67085,10.97377,14.58544Z" fill="#f9b259" stroke-width="0"></path><path d="m186.38513,56.72829v88.1304c0,8.96087-6.93237,16.24822-15.45685,16.24822-8.51669,0-15.45685-7.28735-15.45685-16.24822V56.72829c0-8.96087,6.94016-16.24822,15.45685-16.24822,8.52447,0,15.45685,7.28735,15.45685,16.24822Z" fill="#f9b259" stroke-width="0"></path></g></g></svg> 