<?xml version="1.0" encoding="UTF-8"?><svg id="Livello_2" xmlns="http://www.w3.org/2000/svg" xmlns:xlink="http://www.w3.org/1999/xlink" viewBox="0 0 452.17 141.06"><defs><style>.cls-1{fill:#e31319;}.cls-1,.cls-2,.cls-3,.cls-4,.cls-5{stroke-width:0px;}.cls-6{clip-path:url(#clippath);}.cls-2{fill:none;}.cls-7{stroke:#fff;stroke-miterlimit:10;stroke-width:1.19px;}.cls-7,.cls-5{fill:#fff;}.cls-3{fill:#0b3d91;}.cls-4{fill:#008b3b;}.cls-8{isolation:isolate;}</style><clipPath id="clippath"><rect class="cls-2" x=".77" y=".77" width="132.64" height="139.51"/></clipPath></defs><g id="Livello_1-2"><rect class="cls-3" x=".77" y=".78" width="132.64" height="139.51"/><g class="cls-6"><g class="cls-8"><path class="cls-7" d="M78.07,191.5c-8.17,0-17.03-4.63-25.52-13.46-9.25,2.33-17.88,2.8-25.66,1.37-7.55-1.38-13.94-4.46-19.01-9.16-9.68-8.98-13.44-22.99-10.57-39.47l.05-.28.2.2c23.03,24.02,71.45,36.03,107.95,26.78l.21-.05-.04.22c-1.57,9.04-4.31,16.52-8.12,22.23-3.69,5.53-8.21,9.14-13.43,10.73-1.96.6-3.99.89-6.05.89ZM52.64,177.72l.06.06c10.58,11.03,21.71,15.49,31.34,12.55,10.46-3.19,18.23-15.04,21.32-32.52-36.46,9.15-84.69-2.8-107.82-26.7-2.76,16.25.97,30.07,10.53,38.93,10.37,9.61,26.17,12.35,44.49,7.7l.08-.02Z"/><path class="cls-7" d="M78.07,191.5c-8.19,0-17.07-4.65-25.58-13.52l-.17-.18.24-.06c36.49-9.25,71.16-45.39,77.29-80.56l.05-.28.2.2c10.25,10.69,14.19,22.48,11.12,33.22-3.61,12.59-16.56,22.58-35.55,27.41-1.58,9-4.3,16.45-8.1,22.14-3.69,5.53-8.21,9.14-13.43,10.73-1.96.6-3.99.89-6.05.89ZM52.87,177.96c10.53,10.9,21.59,15.3,31.17,12.38,10.51-3.2,18.29-15.14,21.35-32.74l.02-.09.09-.02c18.93-4.8,31.85-14.73,35.43-27.24,3.03-10.56-.83-22.18-10.86-32.74-6.26,35.11-40.8,71.1-77.21,80.45Z"/><path class="cls-7" d="M94.25,184.04l-.07-.28c16.34-4.14,27.49-12.71,30.58-23.5,2.63-9.17-.76-19.27-9.54-28.42l.21-.2c8.85,9.23,12.26,19.43,9.61,28.7-3.12,10.9-14.34,19.53-30.79,23.7Z"/><path class="cls-7" d="M61.87,178.47c-3.07,0-6.17-.15-9.29-.44l.03-.28c43.12,4.13,83.18-21.1,89.3-56.25l.28.05c-5.7,32.75-40.73,56.93-80.32,56.93Z"/><path class="cls-7" d="M52.55,178.04l-.06-.06c-23.09-24.08-36.87-72.35-30.73-107.61l.02-.09.09-.02c36.58-9.28,85.14,2.77,108.23,26.85l.05.05v.07c-6.15,35.27-40.92,71.51-77.51,80.79l-.08.02ZM22.03,70.51c-6.08,35.14,7.64,83.19,30.61,107.21,36.44-9.28,71.04-45.35,77.2-80.47-23.03-23.96-71.35-35.95-107.81-26.75Z"/><path class="cls-7" d="M115.23,131.84c-19.88-20.73-61.69-31.1-93.19-23.11l-.07-.28c31.6-8.01,73.53,2.4,93.47,23.19l-.21.2Z"/><path class="cls-7" d="M52.7,177.98l-.2-.2c19.9-20.12,41.07-65.12,47.2-100.32l.28.05c-6.14,35.25-27.35,80.32-47.28,100.47Z"/><path class="cls-7" d="M52.45,177.89c-1.47-25.45,2.33-74.82,8.47-110.04l.28.05c-6.13,35.21-9.93,84.54-8.46,109.98l-.29.02Z"/><path class="cls-7" d="M36.08,180.21c-3.18,0-6.24-.27-9.19-.81-7.55-1.38-13.94-4.46-19.01-9.16-9.67-8.96-13.43-22.95-10.58-39.39-10.21-10.67-14.14-22.45-11.07-33.17,3.61-12.61,16.6-22.61,35.64-27.43l.21-.05-.04.22c-6.13,35.18,7.63,83.34,30.66,107.36l.17.18-.24.06c-5.78,1.46-11.31,2.2-16.55,2.2ZM21.72,70.59c-18.82,4.82-31.65,14.72-35.22,27.18-3.05,10.63.88,22.33,11.05,32.94l.05.05v.07c-2.86,16.38.86,30.3,10.47,39.21,10.32,9.57,26.03,12.32,44.25,7.76-22.94-24.09-36.63-72.06-30.6-107.22Z"/><path class="cls-7" d="M.78,160.85c-8.85-9.23-12.26-19.43-9.61-28.7,3.12-10.9,14.34-19.53,30.79-23.7l.07.28c-16.34,4.14-27.49,12.71-30.58,23.51-2.63,9.17.76,19.27,9.54,28.42l-.21.2Z"/><path class="cls-7" d="M52.54,178.01C14.13,161.9-12.12,120.08-5.98,84.8l.28.05c-6.12,35.16,20.05,76.83,58.35,92.9l-.11.26Z"/><path class="cls-7" d="M52.58,178.02c-23.52-2.25-44.13-12.87-56.53-29.13-9.55-12.53-13.39-27.59-10.81-42.41l.28.05c-2.57,14.74,1.25,29.73,10.75,42.19,12.35,16.2,32.88,26.78,56.33,29.02l-.03.28Z"/><path class="cls-7" d="M79.01,160.89c-30.92,0-63.86-11.41-81.67-29.98l-.05-.05v-.07C3.45,95.51,38.22,59.27,74.81,49.99l.08-.02.06.06c23.09,24.08,36.87,72.35,30.73,107.61l-.02.09-.09.02c-8.37,2.12-17.38,3.13-26.56,3.13ZM-2.4,130.76c23.03,23.96,71.35,35.95,107.81,26.75,6.08-35.14-7.64-83.19-30.61-107.22C38.36,59.57,3.76,95.64-2.4,130.76Z"/><path class="cls-7" d="M82.54,122.27c-26.71,0-55.16-9.86-70.53-25.89l.21-.2c19.88,20.73,61.68,31.1,93.19,23.11l.07.28c-7.23,1.83-15.01,2.7-22.93,2.7Z"/><path class="cls-7" d="M81.05,82.58c-15.63,0-32.28-5.77-41.27-15.15l.21-.2c11.61,12.11,36.02,18.16,54.42,13.49l.07.28c-4.23,1.07-8.78,1.58-13.42,1.58Z"/><path class="cls-7" d="M27.74,150.55l-.28-.05c6.14-35.24,27.35-80.32,47.28-100.47l.2.2c-19.9,20.12-41.07,65.12-47.2,100.32Z"/><path class="cls-7" d="M66.52,160.17l-.28-.05c6.13-35.21,9.93-84.55,8.46-109.98l.29-.02c1.47,25.45-2.33,74.82-8.47,110.05Z"/><path class="cls-7" d="M105.36,157.81l.04-.22c6.13-35.18-7.63-83.35-30.65-107.37l-.17-.18.24-.06c9.28-2.35,17.94-2.82,25.74-1.39,7.55,1.38,13.94,4.46,19.01,9.16,9.67,8.96,13.43,22.95,10.58,39.4,10.21,10.67,14.14,22.45,11.07,33.16-3.61,12.61-16.6,22.61-35.64,27.44l-.21.05ZM75.12,50.21c22.94,24.09,36.63,72.07,30.6,107.22,18.82-4.82,31.65-14.72,35.22-27.18,3.05-10.63-.88-22.33-11.05-32.94l-.05-.05v-.07c2.86-16.38-.86-30.3-10.47-39.21-10.32-9.57-26.03-12.32-44.25-7.76Z"/><path class="cls-7" d="M105.48,119.57l-.07-.28c16.34-4.14,27.49-12.71,30.58-23.5,2.63-9.17-.76-19.27-9.54-28.42l.21-.2c8.85,9.23,12.26,19.43,9.61,28.7-3.12,10.9-14.34,19.53-30.79,23.7Z"/><path class="cls-7" d="M94.47,81l-.07-.28c9.53-2.42,16.03-7.41,17.83-13.7,1.53-5.34-.44-11.22-5.56-16.56l.21-.2c5.19,5.41,7.19,11.39,5.63,16.83-1.83,6.39-8.41,11.45-18.04,13.9Z"/><path class="cls-7" d="M133.42,143.21l-.28-.05c6.12-35.16-20.05-76.83-58.35-92.9l.11-.26c38.41,16.11,64.66,57.93,58.52,93.21Z"/><path class="cls-7" d="M142.19,121.54l-.28-.05c2.57-14.75-1.25-29.73-10.75-42.19-12.35-16.2-32.88-26.78-56.33-29.02l.03-.28c23.53,2.25,44.13,12.87,56.53,29.13,9.55,12.53,13.39,27.59,10.81,42.41Z"/><path class="cls-7" d="M130.08,97.51l-.2-.2c-23.03-24.02-71.45-36.03-107.95-26.78l-.21.05.04-.22c1.57-9.04,4.31-16.52,8.12-22.23,3.69-5.53,8.21-9.14,13.43-10.73,9.72-2.96,20.94,1.5,31.57,12.57,9.25-2.33,17.88-2.8,25.66-1.37,7.55,1.38,13.94,4.46,19.01,9.16,9.68,8.98,13.44,22.99,10.57,39.47l-.05.28ZM48.42,67.12c30.81,0,63.62,11.33,81.47,29.78,2.76-16.26-.97-30.07-10.53-38.93-10.37-9.61-26.17-12.35-44.49-7.7l-.08.02-.06-.06c-10.58-11.03-21.71-15.49-31.34-12.55-10.46,3.19-18.23,15.04-21.32,32.52,8.31-2.09,17.24-3.08,26.34-3.08Z"/><path class="cls-7" d="M126.45,67.36c-19.88-20.73-61.69-31.1-93.19-23.11l-.07-.28c31.6-8.01,73.53,2.39,93.47,23.19l-.21.2Z"/><path class="cls-7" d="M106.67,50.47c-11.61-12.11-36.01-18.16-54.42-13.49l-.07-.28c18.48-4.69,43.02,1.4,54.69,13.57l-.21.2Z"/><path class="cls-7" d="M99.98,77.51l-.28-.05c3.41-19.57,1.62-32.72-4.91-36.09-4.74-2.44-11.78.7-19.84,8.85l-.2-.2c8.27-8.37,15.25-11.44,20.18-8.91,6.65,3.43,8.49,16.69,5.06,36.39Z"/><path class="cls-7" d="M61.2,67.89l-.28-.05c3.63-20.85,7.37-32.78,10.27-32.78.02,0,.04,0,.06,0,1.91.11,3.17,5.18,3.74,15.06l-.29.02c-.73-12.74-2.49-14.73-3.47-14.79-.02,0-.03,0-.05,0-2.7,0-6.43,12.14-9.98,32.55Z"/><path class="cls-7" d="M-2.46,131.11l-.2-.2c-10.25-10.69-14.19-22.48-11.12-33.22,3.61-12.59,16.56-22.58,35.55-27.41,1.58-9,4.3-16.45,8.11-22.14,3.69-5.53,8.21-9.14,13.43-10.73,9.74-2.97,20.98,1.51,31.63,12.63l.17.18-.24.06C38.39,59.52,3.71,95.66-2.41,130.83l-.05.28ZM49.37,36.79c-2.04,0-4.03.29-5.97.88-10.51,3.2-18.29,15.14-21.36,32.74l-.02.09-.09.02c-18.93,4.8-31.85,14.73-35.43,27.24-3.03,10.56.83,22.18,10.86,32.74C3.62,95.4,38.16,59.4,74.57,50.05c-8.4-8.7-17.15-13.26-25.2-13.26Z"/><path class="cls-7" d="M12.01,96.37C3.16,87.14-.26,76.95,2.4,67.67c3.12-10.9,14.34-19.53,30.79-23.7l.07.28c-16.34,4.14-27.49,12.71-30.58,23.5-2.63,9.17.76,19.27,9.54,28.42l-.21.2Z"/><path class="cls-7" d="M39.77,67.43c-5.19-5.41-7.19-11.39-5.63-16.83,1.83-6.39,8.41-11.45,18.04-13.9l.07.28c-9.53,2.42-16.03,7.41-17.83,13.7-1.53,5.34.44,11.22,5.56,16.56l-.21.2Z"/><path class="cls-7" d="M-5.7,84.85l-.28-.05c2.67-15.31,11.23-27.63,24.11-34.67,15.74-8.61,36.43-8.66,56.77-.13l-.11.26c-20.25-8.5-40.86-8.46-56.52.11-12.8,7-21.31,19.25-23.96,34.47Z"/><path class="cls-7" d="M-14.47,106.52l-.28-.05c6.15-35.29,46.36-60.63,89.61-56.49l-.03.28C31.71,46.15-8.35,71.37-14.47,106.52Z"/></g></g><path class="cls-5" d="M133.41,141.06H.78c-.43,0-.78-.35-.78-.78V.77c0-.43.35-.77.77-.77h132.64c.43,0,.77.35.77.77v139.51c0,.43-.35.77-.77.77ZM1.55,139.51h131.09V1.55H1.55v137.97Z"/><rect class="cls-5" x="44.99" y="124.49" width="44.21" height="16.57"/><path class="cls-1" d="M89.2,124.49h44.99v15.8c0,.43-.35.77-.77.77h-44.21v-16.57h0Z"/><path class="cls-4" d="M0,124.49h44.99v16.57H.77c-.43,0-.77-.35-.77-.77v-15.8h0Z"/><path class="cls-5" d="M186.28,88.34c-7.41,0-13.46-1.25-18.15-3.76-6-3.27-8.99-8.39-8.99-15.37v-3.6h7.93v3.35c0,8.18,6.43,12.26,19.3,12.26,4.69,0,8.5-.65,11.45-1.96,3.49-1.47,5.23-3.68,5.23-6.62,0-2.13-.55-3.68-1.64-4.66-1.09-.98-3.03-1.85-5.8-2.62-1.64-.44-5.48-1.25-11.53-2.45-7.14-1.42-12.02-2.75-14.64-4.01-5.61-2.67-8.42-6.7-8.42-12.1,0-10.03,7.9-15.04,23.71-15.04s24.8,6.73,25.02,20.2h-7.69c-.38-5.78-2.07-9.43-5.07-10.96-2.67-1.42-6.76-2.13-12.26-2.13-10.58,0-15.86,2.64-15.86,7.93,0,2.51,1.25,4.39,3.76,5.64,2.07.98,5.7,1.91,10.87,2.78,10.14,1.69,16.95,3.52,20.44,5.48,4.63,2.62,6.95,6.65,6.95,12.1s-2.92,9.62-8.75,12.35c-4.41,2.13-9.7,3.19-15.86,3.19Z"/><path class="cls-5" d="M217.51,87.77v-55.43h45.87v7.11h-38.1v15.94h33.77v7.11h-33.77v18.15h38.51v7.11h-46.28Z"/><path class="cls-5" d="M310.4,60.7c4.25,2.67,6.38,6.7,6.38,12.1v14.96h-7.85v-14.72c0-5.67-4.47-8.5-13.41-8.5h-19.95v23.22h-7.85v-55.43h28.54c14.23,0,21.34,5.12,21.34,15.37,0,5.83-2.4,10.17-7.19,13ZM296.42,39.45h-20.85v17.91h19.54c4.36,0,7.82-.74,10.38-2.21,2.83-1.64,4.25-4.03,4.25-7.19,0-5.67-4.44-8.5-13.33-8.5Z"/><path class="cls-5" d="M324.3,87.77v-55.43h7.85v55.43h-7.85Z"/><path class="cls-5" d="M390.03,47.95c-2.4-3.27-5.11-5.6-8.14-6.99-3.03-1.39-6.8-2.09-11.32-2.09-7.36,0-13.18,1.92-17.46,5.76-4.28,3.84-6.42,9.01-6.42,15.49s2.03,11.56,6.09,15.37c4.06,3.82,9.69,5.72,16.88,5.72,4.3,0,8-.71,11.08-2.13,3.08-1.42,5.95-3.76,8.62-7.03l6.71,4.01c-6.76,8.18-15.54,12.26-26.33,12.26-9.37,0-16.87-2.52-22.48-7.56-5.61-5.04-8.42-11.81-8.42-20.32s2.89-15.75,8.67-20.93c5.78-5.18,13.46-7.77,23.06-7.77,11.23,0,19.92,4.06,26.08,12.18l-6.62,4.01Z"/><path class="cls-5" d="M427.56,88.34c-7.41,0-13.46-1.25-18.15-3.76-6-3.27-8.99-8.39-8.99-15.37v-3.6h7.93v3.35c0,8.18,6.43,12.26,19.29,12.26,4.69,0,8.5-.65,11.45-1.96,3.49-1.47,5.23-3.68,5.23-6.62,0-2.13-.55-3.68-1.64-4.66-1.09-.98-3.03-1.85-5.8-2.62-1.64-.44-5.48-1.25-11.53-2.45-7.14-1.42-12.02-2.75-14.64-4.01-5.61-2.67-8.42-6.7-8.42-12.1,0-10.03,7.9-15.04,23.71-15.04s24.8,6.73,25.02,20.2h-7.69c-.38-5.78-2.07-9.43-5.07-10.96-2.67-1.42-6.76-2.13-12.26-2.13-10.57,0-15.86,2.64-15.86,7.93,0,2.51,1.25,4.39,3.76,5.64,2.07.98,5.7,1.91,10.88,2.78,10.14,1.69,16.95,3.52,20.44,5.48,4.63,2.62,6.95,6.65,6.95,12.1s-2.92,9.62-8.75,12.35c-4.41,2.13-9.7,3.19-15.86,3.19Z"/><path class="cls-5" d="M173.46,115.4c0-.63-.18-1.12-.53-1.48-.36-.36-1.02-.7-2-1.03-.97-.33-1.69-.7-2.15-1.1-.6-.53-.9-1.23-.9-2.09s.29-1.55.88-2.09c.59-.54,1.35-.81,2.28-.81s1.73.31,2.34.94c.6.63.91,1.43.91,2.42h-.88c0-.75-.21-1.36-.63-1.83-.42-.46-1-.7-1.73-.7s-1.27.19-1.67.57c-.41.38-.61.88-.61,1.48,0,.56.19,1.03.58,1.38.39.36,1,.68,1.84.96.84.28,1.48.57,1.91.87.43.3.75.65.95,1.06.21.41.31.88.31,1.43,0,.88-.3,1.58-.89,2.12-.59.54-1.38.8-2.35.8-.66,0-1.26-.13-1.8-.4-.54-.27-.96-.66-1.27-1.16-.3-.5-.46-1.1-.46-1.79h.88c0,.79.24,1.41.71,1.86s1.12.68,1.93.68c.71,0,1.28-.19,1.7-.57.43-.38.64-.89.64-1.52Z"/><path class="cls-5" d="M181.57,112.79h-4.35v4.55h5v.82h-5.88v-11.2h5.84v.83h-4.96v4.19h4.35v.82Z"/><path class="cls-5" d="M190.89,114.66c-.08,1.26-.42,2.18-1.02,2.77-.59.59-1.42.88-2.47.88s-1.94-.41-2.56-1.23c-.63-.82-.94-1.93-.95-3.33v-2.43c0-1.41.32-2.51.96-3.31.64-.8,1.51-1.2,2.62-1.2,1.05,0,1.86.3,2.43.9.57.6.9,1.52.98,2.76h-.89c-.08-1.02-.32-1.74-.72-2.18-.4-.44-1-.65-1.8-.65-.85,0-1.5.31-1.98.95-.47.63-.71,1.55-.71,2.75v2.4c0,1.19.23,2.11.68,2.78.46.66,1.1.99,1.93.99.87,0,1.5-.22,1.89-.65s.62-1.16.7-2.18h.89Z"/><path class="cls-5" d="M199.59,106.95v7.95c0,1.08-.3,1.92-.87,2.52-.58.59-1.4.89-2.46.89s-1.9-.29-2.47-.88c-.57-.59-.86-1.44-.86-2.56v-7.91h.88v7.88c0,1.77.82,2.65,2.45,2.65s2.43-.86,2.45-2.58v-7.96h.88Z"/><path class="cls-5" d="M205.55,113.49h-2.62v4.66h-.88v-11.2h3.07c1.02,0,1.81.29,2.37.87.56.58.84,1.39.84,2.43,0,.72-.18,1.36-.52,1.9-.35.55-.82.92-1.41,1.13l2.33,4.76v.1h-.94l-2.25-4.66ZM202.94,112.67h2.34c.66,0,1.19-.23,1.59-.68.39-.45.59-1.04.59-1.74,0-.78-.21-1.39-.62-1.82s-.98-.65-1.72-.65h-2.18v4.89Z"/><path class="cls-5" d="M211.77,118.15h-.88v-11.2h.88v11.2Z"/><path class="cls-5" d="M220.98,107.78h-3.18v10.37h-.88v-10.37h-3.18v-.83h7.24v.83Z"/><path class="cls-5" d="M225.69,113.04l2.79-6.09h1.01l-3.37,6.98v4.21h-.88v-4.21l-3.36-6.98h1.03l2.78,6.09Z"/><path class="cls-5" d="M239.76,115.02h-4.2l-.95,3.13h-.92l3.57-11.2h.82l3.57,11.2h-.92l-.97-3.13ZM235.82,114.2h3.69l-1.85-6.01-1.85,6.01Z"/><path class="cls-5" d="M250.35,118.15h-.88l-5.28-9.54v9.54h-.88v-11.2h.88l5.29,9.55v-9.55h.87v11.2Z"/><path class="cls-5" d="M253.02,118.15v-11.2h2.64c1.21,0,2.18.39,2.88,1.17.71.78,1.07,1.85,1.09,3.21v2.35c0,1.4-.36,2.5-1.07,3.29-.71.79-1.72,1.18-3.01,1.18h-2.53ZM253.89,107.78v9.55h1.7c1,0,1.77-.31,2.32-.93.55-.62.83-1.5.85-2.65v-2.35c0-1.15-.27-2.04-.8-2.68-.54-.64-1.31-.95-2.33-.95h-1.74Z"/><path class="cls-5" d="M269.01,113.49h-2.62v4.66h-.88v-11.2h3.07c1.02,0,1.81.29,2.37.87.56.58.84,1.39.84,2.43,0,.72-.18,1.36-.52,1.9-.35.55-.82.92-1.41,1.13l2.33,4.76v.1h-.94l-2.25-4.66ZM266.4,112.67h2.34c.66,0,1.19-.23,1.59-.68.39-.45.59-1.04.59-1.74,0-.78-.21-1.39-.62-1.82s-.98-.65-1.72-.65h-2.18v4.89Z"/><path class="cls-5" d="M275.23,118.15h-.88v-11.2h.88v11.2Z"/><path class="cls-5" d="M284.86,116.85c-.38.48-.85.85-1.42,1.09-.57.24-1.19.37-1.87.37-1.15,0-2.05-.38-2.71-1.15-.66-.77-1-1.84-1.02-3.2v-2.72c0-1.43.31-2.53.93-3.29.62-.76,1.51-1.14,2.67-1.14,1.03,0,1.84.28,2.42.85s.91,1.39.98,2.46h-.88c-.09-.86-.35-1.49-.76-1.89-.41-.4-1-.6-1.77-.6-.91,0-1.6.3-2.05.91-.45.61-.68,1.5-.68,2.67v2.58c0,1.17.25,2.08.75,2.72.5.65,1.2.97,2.1.97.98,0,1.78-.31,2.4-.93v-2.91h-2.45v-.82h3.34v4.03Z"/><path class="cls-5" d="M294.4,118.15h-.88v-5.36h-5.26v5.36h-.88v-11.2h.88v5.02h5.26v-5.02h.88v11.2Z"/><path class="cls-5" d="M303.25,107.78h-3.18v10.37h-.88v-10.37h-3.18v-.83h7.24v.83Z"/><path class="cls-5" d="M310.19,115.4c0-.63-.18-1.12-.53-1.48-.36-.36-1.02-.7-2-1.03-.97-.33-1.69-.7-2.15-1.1-.6-.53-.9-1.23-.9-2.09s.29-1.55.88-2.09c.59-.54,1.35-.81,2.28-.81s1.73.31,2.34.94c.6.63.91,1.43.91,2.42h-.88c0-.75-.21-1.36-.63-1.83-.42-.46-1-.7-1.73-.7s-1.27.19-1.67.57c-.41.38-.61.88-.61,1.48,0,.56.19,1.03.58,1.38.39.36,1,.68,1.84.96.84.28,1.48.57,1.91.87.43.3.75.65.95,1.06.21.41.31.88.31,1.43,0,.88-.3,1.58-.89,2.12-.59.54-1.38.8-2.35.8-.66,0-1.26-.13-1.8-.4-.54-.27-.96-.66-1.27-1.16-.3-.5-.46-1.1-.46-1.79h.88c0,.79.24,1.41.71,1.86s1.12.68,1.93.68c.71,0,1.28-.19,1.7-.57.43-.38.64-.89.64-1.52Z"/><path class="cls-5" d="M317.65,118.15h-.88v-11.2h.88v11.2Z"/><path class="cls-5" d="M327.5,118.15h-.88l-5.28-9.54v9.54h-.88v-11.2h.88l5.29,9.55v-9.55h.87v11.2Z"/><path class="cls-5" d="M339.8,107.78h-3.18v10.37h-.88v-10.37h-3.18v-.83h7.24v.83Z"/><path class="cls-5" d="M348.62,118.15h-.88v-5.36h-5.26v5.36h-.88v-11.2h.88v5.02h5.26v-5.02h.88v11.2Z"/><path class="cls-5" d="M356.51,112.79h-4.35v4.55h5v.82h-5.88v-11.2h5.84v.83h-4.96v4.19h4.35v.82Z"/><path class="cls-5" d="M369.37,114.66c-.08,1.26-.42,2.18-1.02,2.77-.59.59-1.42.88-2.47.88s-1.94-.41-2.56-1.23c-.63-.82-.94-1.93-.95-3.33v-2.43c0-1.41.32-2.51.96-3.31.64-.8,1.51-1.2,2.62-1.2,1.05,0,1.86.3,2.43.9.57.6.9,1.52.98,2.76h-.89c-.08-1.02-.32-1.74-.72-2.18-.4-.44-1-.65-1.8-.65-.85,0-1.5.31-1.98.95-.47.63-.71,1.55-.71,2.75v2.4c0,1.19.23,2.11.68,2.78s1.1.99,1.93.99c.87,0,1.5-.22,1.89-.65.39-.44.62-1.16.7-2.18h.89Z"/><path class="cls-5" d="M374.34,113.04l2.79-6.09h1.01l-3.37,6.98v4.21h-.88v-4.21l-3.36-6.98h1.03l2.78,6.09Z"/><path class="cls-5" d="M379.79,118.15v-11.2h2.84c1.01,0,1.78.25,2.3.74.52.49.78,1.22.78,2.19,0,.57-.13,1.07-.4,1.5-.27.43-.64.73-1.11.92.54.14.98.46,1.32.95.34.5.5,1.08.5,1.74,0,.97-.27,1.74-.8,2.31-.53.56-1.29.85-2.27.85h-3.16ZM380.67,111.97h2.04c.67,0,1.18-.18,1.55-.53.37-.35.55-.88.55-1.58s-.18-1.24-.54-1.57c-.36-.34-.91-.5-1.64-.5h-1.96v4.18ZM380.67,112.77v4.57h2.32c.67,0,1.19-.21,1.58-.62.39-.41.58-.98.58-1.71,0-.68-.18-1.22-.53-1.62-.36-.4-.85-.61-1.49-.62h-2.45Z"/><path class="cls-5" d="M393.45,112.79h-4.35v4.55h5v.82h-5.88v-11.2h5.84v.83h-4.96v4.19h4.35v.82Z"/><path class="cls-5" d="M399.54,113.49h-2.62v4.66h-.88v-11.2h3.07c1.02,0,1.81.29,2.37.87.56.58.84,1.39.84,2.43,0,.72-.18,1.36-.52,1.9-.35.55-.82.92-1.41,1.13l2.33,4.76v.1h-.94l-2.25-4.66ZM396.93,112.67h2.34c.66,0,1.19-.23,1.59-.68.39-.45.59-1.04.59-1.74,0-.78-.21-1.39-.62-1.82-.41-.43-.98-.65-1.72-.65h-2.18v4.89Z"/><path class="cls-5" d="M409.98,115.4c0-.63-.18-1.12-.53-1.48-.36-.36-1.02-.7-2-1.03-.97-.33-1.69-.7-2.15-1.1-.6-.53-.9-1.23-.9-2.09s.29-1.55.88-2.09c.59-.54,1.35-.81,2.28-.81s1.73.31,2.34.94c.6.63.91,1.43.91,2.42h-.88c0-.75-.21-1.36-.63-1.83-.42-.46-1-.7-1.73-.7s-1.27.19-1.67.57c-.41.38-.61.88-.61,1.48,0,.56.19,1.03.58,1.38.39.36,1,.68,1.84.96.84.28,1.48.57,1.91.87.43.3.75.65.95,1.06s.31.88.31,1.43c0,.88-.3,1.58-.89,2.12-.59.54-1.38.8-2.35.8-.66,0-1.26-.13-1.8-.4-.54-.27-.96-.66-1.27-1.16-.3-.5-.46-1.1-.46-1.79h.88c0,.79.24,1.41.71,1.86.48.45,1.12.68,1.93.68.71,0,1.28-.19,1.7-.57.43-.38.64-.89.64-1.52Z"/><path class="cls-5" d="M413.74,113.6v4.55h-.88v-11.2h3.25c.99,0,1.77.3,2.34.89.57.59.85,1.41.85,2.45s-.28,1.88-.83,2.45c-.55.57-1.34.85-2.38.85h-2.36ZM413.74,112.77h2.38c.74,0,1.31-.21,1.71-.64.4-.43.6-1.04.6-1.82s-.2-1.4-.61-1.85c-.41-.45-.97-.68-1.7-.68h-2.38v4.99Z"/><path class="cls-5" d="M425.38,115.02h-4.2l-.95,3.13h-.92l3.57-11.2h.82l3.57,11.2h-.92l-.97-3.13ZM421.44,114.2h3.69l-1.85-6.01-1.85,6.01Z"/><path class="cls-5" d="M435.65,114.66c-.08,1.26-.42,2.18-1.02,2.77-.59.59-1.42.88-2.47.88s-1.94-.41-2.56-1.23c-.63-.82-.94-1.93-.95-3.33v-2.43c0-1.41.32-2.51.96-3.31.64-.8,1.51-1.2,2.62-1.2,1.05,0,1.86.3,2.43.9s.9,1.52.98,2.76h-.89c-.08-1.02-.32-1.74-.72-2.18-.4-.44-1-.65-1.8-.65-.85,0-1.5.31-1.98.95-.47.63-.71,1.55-.71,2.75v2.4c0,1.19.23,2.11.68,2.78s1.1.99,1.93.99c.87,0,1.5-.22,1.89-.65.39-.44.62-1.16.7-2.18h.89Z"/><path class="cls-5" d="M443.06,112.79h-4.35v4.55h5v.82h-5.88v-11.2h5.84v.83h-4.96v4.19h4.35v.82Z"/></g></svg>